<?xml version="1.0" encoding="utf-8" ?>
<svg baseProfile="full" height="665.0" version="1.1" width="721.0" xmlns="http://www.w3.org/2000/svg" xmlns:ev="http://www.w3.org/2001/xml-events" xmlns:xlink="http://www.w3.org/1999/xlink"><defs /><polyline fill="none" points="532.0,93.8 532.0,119.0 527.8000000000001,119.0" stroke="rgb(68,1,84)" stroke-width="4.2" /><polyline fill="none" points="522.1999999999999,119.0 504.0,119.0 504.0,112.0 508.19999999999993,112.0" stroke="rgb(68,1,84)" stroke-width="4.2" /><polyline fill="none" points="513.8000000000001,112.0 518.0,112.0 518.0,98.0 511.0,98.0 511.0,102.2" stroke="rgb(68,2,85)" stroke-width="4.2" /><polyline fill="none" points="511.0,107.8 511.0,116.20000000000002" stroke="rgb(68,3,87)" stroke-width="4.2" /><polyline fill="none" points="511.0,121.79999999999998 511.0,126.0 492.80000000000007,126.0" stroke="rgb(69,5,88)" stroke-width="4.2" /><polyline fill="none" points="487.19999999999993,126.0 448.0,126.0 448.0,119.0 452.19999999999993,119.0" stroke="rgb(69,6,90)" stroke-width="4.2" /><polyline fill="none" points="457.80000000000007,119.0 483.0,119.0 483.0,105.0 464.80000000000007,105.0" stroke="rgb(69,8,91)" stroke-width="4.2" /><polyline fill="none" points="459.19999999999993,105.0 448.0,105.0 448.0,98.0 452.19999999999993,98.0" stroke="rgb(69,8,91)" stroke-width="4.2" /><polyline fill="none" points="457.80000000000007,98.0 469.0,98.0 469.0,93.8" stroke="rgb(70,9,92)" stroke-width="4.2" /><polyline fill="none" points="469.0,88.2 469.0,84.0 455.0,84.0 455.0,102.2" stroke="rgb(70,11,94)" stroke-width="4.2" /><polyline fill="none" points="455.0,107.8 455.0,123.20000000000002" stroke="rgb(70,12,95)" stroke-width="4.2" /><polyline fill="none" points="455.0,128.79999999999998 455.0,151.20000000000002" stroke="rgb(70,14,97)" stroke-width="4.2" /><polyline fill="none" points="455.0,156.79999999999998 455.0,161.0 466.19999999999993,161.0" stroke="rgb(71,15,98)" stroke-width="4.2" /><polyline fill="none" points="471.80000000000007,161.0 476.0,161.0 476.0,147.0 469.0,147.0 469.0,151.20000000000002" stroke="rgb(71,17,99)" stroke-width="4.2" /><polyline fill="none" points="469.0,156.79999999999998 469.0,168.0 462.0,168.0 462.0,163.79999999999998" stroke="rgb(71,17,99)" stroke-width="4.2" /><polyline fill="none" points="462.0,158.20000000000002 462.0,133.0 457.80000000000007,133.0" stroke="rgb(71,18,101)" stroke-width="4.2" /><polyline fill="none" points="452.19999999999993,133.0 436.8,133.0" stroke="rgb(71,20,102)" stroke-width="4.2" /><polyline fill="none" points="431.2,133.0 420.0,133.0 420.0,137.20000000000002" stroke="rgb(71,21,103)" stroke-width="4.2" /><polyline fill="none" points="420.0,142.79999999999998 420.0,151.20000000000002" stroke="rgb(71,22,105)" stroke-width="4.2" /><polyline fill="none" points="420.0,156.79999999999998 420.0,410.2" stroke="rgb(71,24,106)" stroke-width="4.2" /><polyline fill="none" points="420.0,415.8 420.0,473.19999999999993" stroke="rgb(72,25,107)" stroke-width="4.2" /><polyline fill="none" points="420.0,478.80000000000007 420.0,487.19999999999993" stroke="rgb(72,25,107)" stroke-width="4.2" /><polyline fill="none" points="420.0,492.80000000000007 420.0,508.19999999999993" stroke="rgb(72,26,108)" stroke-width="4.2" /><polyline fill="none" points="420.0,513.8000000000001 420.0,564.1999999999999" stroke="rgb(72,28,110)" stroke-width="4.2" /><polyline fill="none" points="420.0,569.8000000000001 420.0,585.1999999999999" stroke="rgb(72,29,111)" stroke-width="4.2" /><polyline fill="none" points="420.0,590.8000000000001 420.0,609.0 352.8,609.0" stroke="rgb(72,30,112)" stroke-width="4.2" /><polyline fill="none" points="347.2,609.0 343.0,609.0 343.0,616.0 424.2,616.0" stroke="rgb(72,32,113)" stroke-width="4.2" /><polyline fill="none" points="429.8,616.0 441.0,616.0 441.0,595.0 427.0,595.0 427.0,599.1999999999999" stroke="rgb(72,33,114)" stroke-width="4.2" /><polyline fill="none" points="427.0,604.8000000000001 427.0,620.1999999999999" stroke="rgb(72,33,114)" stroke-width="4.2" /><polyline fill="none" points="427.0,625.8000000000001 427.0,637.0 77.0,637.0 77.0,632.8000000000001" stroke="rgb(72,34,115)" stroke-width="4.2" /><polyline fill="none" points="77.0,627.1999999999999 77.0,422.8" stroke="rgb(72,35,116)" stroke-width="4.2" /><polyline fill="none" points="77.0,417.2 77.0,406.0 65.8,406.0" stroke="rgb(71,37,117)" stroke-width="4.2" /><polyline fill="none" points="60.199999999999996,406.0 51.800000000000004,406.0" stroke="rgb(71,38,118)" stroke-width="4.2" /><polyline fill="none" points="46.199999999999996,406.0 42.0,406.0 42.0,385.0 95.2,385.0" stroke="rgb(71,39,119)" stroke-width="4.2" /><polyline fill="none" points="100.8,385.0 105.0,385.0 105.0,392.0 70.0,392.0 70.0,403.2" stroke="rgb(71,40,120)" stroke-width="4.2" /><polyline fill="none" points="70.0,408.8 70.0,420.0 95.2,420.0" stroke="rgb(71,40,120)" stroke-width="4.2" /><polyline fill="none" points="100.8,420.0 116.20000000000002,420.0" stroke="rgb(71,42,121)" stroke-width="4.2" /><polyline fill="none" points="121.79999999999998,420.0 133.0,420.0 133.0,427.0 128.79999999999998,427.0" stroke="rgb(71,43,122)" stroke-width="4.2" /><polyline fill="none" points="123.20000000000002,427.0 119.0,427.0 119.0,373.8" stroke="rgb(71,44,123)" stroke-width="4.2" /><polyline fill="none" points="119.0,368.2 119.0,364.0 140.0,364.0 140.0,410.2" stroke="rgb(70,45,124)" stroke-width="4.2" /><polyline fill="none" points="140.0,415.8 140.0,434.0 126.0,434.0 126.0,422.8" stroke="rgb(70,47,124)" stroke-width="4.2" /><polyline fill="none" points="126.0,417.2 126.0,413.0 221.20000000000002,413.0" stroke="rgb(70,48,125)" stroke-width="4.2" /><polyline fill="none" points="226.79999999999998,413.0 245.0,413.0 245.0,420.0 240.79999999999998,420.0" stroke="rgb(70,48,125)" stroke-width="4.2" /><polyline fill="none" points="235.20000000000002,420.0 224.0,420.0 224.0,373.8" stroke="rgb(70,49,126)" stroke-width="4.2" /><polyline fill="none" points="224.0,368.2 224.0,219.79999999999998" stroke="rgb(69,50,127)" stroke-width="4.2" /><polyline fill="none" points="224.0,214.20000000000002 224.0,210.0 217.0,210.0 217.0,350.0 221.20000000000002,350.0" stroke="rgb(69,52,127)" stroke-width="4.2" /><polyline fill="none" points="226.79999999999998,350.0 280.0,350.0 280.0,371.0 240.79999999999998,371.0" stroke="rgb(69,53,128)" stroke-width="4.2" /><polyline fill="none" points="235.20000000000002,371.0 142.79999999999998,371.0" stroke="rgb(69,54,129)" stroke-width="4.2" /><polyline fill="none" points="137.20000000000002,371.0 100.8,371.0" stroke="rgb(68,55,129)" stroke-width="4.2" /><polyline fill="none" points="95.2,371.0 42.0,371.0 42.0,322.0 81.2,322.0" stroke="rgb(68,55,129)" stroke-width="4.2" /><polyline fill="none" points="86.8,322.0 95.2,322.0" stroke="rgb(68,57,130)" stroke-width="4.2" /><polyline fill="none" points="100.8,322.0 105.0,322.0 105.0,308.0 72.8,308.0" stroke="rgb(67,58,131)" stroke-width="4.2" /><polyline fill="none" points="67.2,308.0 63.0,308.0 63.0,301.0 81.2,301.0" stroke="rgb(67,59,131)" stroke-width="4.2" /><polyline fill="none" points="86.8,301.0 147.0,301.0 147.0,364.0 210.0,364.0 210.0,350.0 205.79999999999998,350.0" stroke="rgb(67,60,132)" stroke-width="4.2" /><polyline fill="none" points="200.20000000000002,350.0 182.0,350.0 182.0,343.0 186.20000000000002,343.0" stroke="rgb(66,61,132)" stroke-width="4.2" /><polyline fill="none" points="191.79999999999998,343.0 210.0,343.0 210.0,224.0 205.79999999999998,224.0" stroke="rgb(66,61,132)" stroke-width="4.2" /><polyline fill="none" points="200.20000000000002,224.0 28.0,224.0 28.0,238.0 32.199999999999996,238.0" stroke="rgb(66,62,133)" stroke-width="4.2" /><polyline fill="none" points="37.800000000000004,238.0 186.20000000000002,238.0" stroke="rgb(66,64,133)" stroke-width="4.2" /><polyline fill="none" points="191.79999999999998,238.0 196.0,238.0 196.0,336.0 149.79999999999998,336.0" stroke="rgb(65,65,134)" stroke-width="4.2" /><polyline fill="none" points="144.20000000000002,336.0 49.0,336.0 49.0,324.8" stroke="rgb(65,66,134)" stroke-width="4.2" /><polyline fill="none" points="49.0,319.2 49.0,280.0 67.2,280.0" stroke="rgb(64,67,135)" stroke-width="4.2" /><polyline fill="none" points="72.8,280.0 105.0,280.0 105.0,275.8" stroke="rgb(64,68,135)" stroke-width="4.2" /><polyline fill="none" points="105.0,270.2 105.0,252.0 98.0,252.0 98.0,256.2" stroke="rgb(63,69,135)" stroke-width="4.2" /><polyline fill="none" points="98.0,261.8 98.0,266.0 86.8,266.0" stroke="rgb(63,69,135)" stroke-width="4.2" /><polyline fill="none" points="81.2,266.0 23.8,266.0" stroke="rgb(63,71,136)" stroke-width="4.2" /><polyline fill="none" points="18.2,266.0 7.0,266.0 7.0,385.0 25.2,385.0" stroke="rgb(62,72,136)" stroke-width="4.2" /><polyline fill="none" points="30.800000000000004,385.0 35.0,385.0 35.0,289.8" stroke="rgb(62,73,137)" stroke-width="4.2" /><polyline fill="none" points="35.0,284.2 35.0,268.8" stroke="rgb(61,74,137)" stroke-width="4.2" /><polyline fill="none" points="35.0,263.2 35.0,226.79999999999998" stroke="rgb(61,75,137)" stroke-width="4.2" /><polyline fill="none" points="35.0,221.20000000000002 35.0,212.79999999999998" stroke="rgb(61,76,137)" stroke-width="4.2" /><polyline fill="none" points="35.0,207.20000000000002 35.0,182.0 42.0,182.0 42.0,186.20000000000002" stroke="rgb(61,76,137)" stroke-width="4.2" /><polyline fill="none" points="42.0,191.79999999999998 42.0,203.0 200.20000000000002,203.0" stroke="rgb(60,77,138)" stroke-width="4.2" /><polyline fill="none" points="205.79999999999998,203.0 231.0,203.0 231.0,217.0 219.79999999999998,217.0" stroke="rgb(60,78,138)" stroke-width="4.2" /><polyline fill="none" points="214.20000000000002,217.0 196.0,217.0 196.0,205.79999999999998" stroke="rgb(59,80,138)" stroke-width="4.2" /><polyline fill="none" points="196.0,200.20000000000002 196.0,170.79999999999998" stroke="rgb(59,81,138)" stroke-width="4.2" /><polyline fill="none" points="196.0,165.20000000000002 196.0,161.0 305.2,161.0" stroke="rgb(58,82,139)" stroke-width="4.2" /><polyline fill="none" points="310.8,161.0 368.2,161.0" stroke="rgb(58,83,139)" stroke-width="4.2" /><polyline fill="none" points="373.8,161.0 382.2,161.0" stroke="rgb(58,83,139)" stroke-width="4.2" /><polyline fill="none" points="387.8,161.0 392.0,161.0 392.0,175.0 359.8,175.0" stroke="rgb(57,84,139)" stroke-width="4.2" /><polyline fill="none" points="354.2,175.0 308.0,175.0 308.0,406.0 312.2,406.0" stroke="rgb(57,84,139)" stroke-width="4.2" /><polyline fill="none" points="317.8,406.0 417.2,406.0" stroke="rgb(56,86,139)" stroke-width="4.2" /><polyline fill="none" points="422.8,406.0 490.0,406.0 490.0,91.0 478.80000000000007,91.0" stroke="rgb(56,87,140)" stroke-width="4.2" /><polyline fill="none" points="473.19999999999993,91.0 462.0,91.0 462.0,95.2" stroke="rgb(55,88,140)" stroke-width="4.2" /><polyline fill="none" points="462.0,100.8 462.0,112.0 476.0,112.0 476.0,107.8" stroke="rgb(55,89,140)" stroke-width="4.2" /><polyline fill="none" points="476.0,102.2 476.0,79.8" stroke="rgb(55,89,140)" stroke-width="4.2" /><polyline fill="none" points="476.0,74.2 476.0,58.800000000000004" stroke="rgb(54,90,140)" stroke-width="4.2" /><polyline fill="none" points="476.0,53.199999999999996 476.0,49.0 434.0,49.0 434.0,60.199999999999996" stroke="rgb(54,91,140)" stroke-width="4.2" /><polyline fill="none" points="434.0,65.8 434.0,140.0 429.8,140.0" stroke="rgb(53,92,140)" stroke-width="4.2" /><polyline fill="none" points="424.2,140.0 413.0,140.0 413.0,126.0 427.0,126.0 427.0,130.20000000000002" stroke="rgb(53,93,140)" stroke-width="4.2" /><polyline fill="none" points="427.0,135.79999999999998 427.0,147.0 422.8,147.0" stroke="rgb(52,94,141)" stroke-width="4.2" /><polyline fill="none" points="417.2,147.0 406.0,147.0 406.0,63.0 473.19999999999993,63.0" stroke="rgb(52,95,141)" stroke-width="4.2" /><polyline fill="none" points="478.80000000000007,63.0 651.0,63.0 651.0,56.0 646.8000000000001,56.0" stroke="rgb(52,95,141)" stroke-width="4.2" /><polyline fill="none" points="641.1999999999999,56.0 436.8,56.0" stroke="rgb(51,96,141)" stroke-width="4.2" /><polyline fill="none" points="431.2,56.0 399.0,56.0 399.0,182.0 385.0,182.0 385.0,177.79999999999998" stroke="rgb(51,97,141)" stroke-width="4.2" /><polyline fill="none" points="385.0,172.20000000000002 385.0,154.0 396.2,154.0" stroke="rgb(50,98,141)" stroke-width="4.2" /><polyline fill="none" points="401.8,154.0 438.2,154.0" stroke="rgb(50,99,141)" stroke-width="4.2" /><polyline fill="none" points="443.8,154.0 459.19999999999993,154.0" stroke="rgb(49,100,141)" stroke-width="4.2" /><polyline fill="none" points="464.80000000000007,154.0 473.19999999999993,154.0" stroke="rgb(49,100,141)" stroke-width="4.2" /><polyline fill="none" points="478.80000000000007,154.0 483.0,154.0 483.0,175.0 441.0,175.0 441.0,135.79999999999998" stroke="rgb(49,101,141)" stroke-width="4.2" /><polyline fill="none" points="441.0,130.20000000000002 441.0,77.0 522.1999999999999,77.0" stroke="rgb(49,102,141)" stroke-width="4.2" /><polyline fill="none" points="527.8000000000001,77.0 595.0,77.0 595.0,81.2" stroke="rgb(48,103,141)" stroke-width="4.2" /><polyline fill="none" points="595.0,86.8 595.0,98.0 627.1999999999999,98.0" stroke="rgb(48,104,141)" stroke-width="4.2" /><polyline fill="none" points="632.8000000000001,98.0 637.0,98.0 637.0,84.0 590.8000000000001,84.0" stroke="rgb(47,105,141)" stroke-width="4.2" /><polyline fill="none" points="585.1999999999999,84.0 574.0,84.0 574.0,102.2" stroke="rgb(47,106,141)" stroke-width="4.2" /><polyline fill="none" points="574.0,107.8 574.0,459.19999999999993" stroke="rgb(46,107,142)" stroke-width="4.2" /><polyline fill="none" points="574.0,464.80000000000007 574.0,469.0 581.0,469.0 581.0,429.8" stroke="rgb(46,107,142)" stroke-width="4.2" /><polyline fill="none" points="581.0,424.2 581.0,105.0 534.8000000000001,105.0" stroke="rgb(46,108,142)" stroke-width="4.2" /><polyline fill="none" points="529.1999999999999,105.0 520.8000000000001,105.0" stroke="rgb(46,109,142)" stroke-width="4.2" /><polyline fill="none" points="515.1999999999999,105.0 497.0,105.0 497.0,123.20000000000002" stroke="rgb(45,110,142)" stroke-width="4.2" /><polyline fill="none" points="497.0,128.79999999999998 497.0,417.2" stroke="rgb(45,111,142)" stroke-width="4.2" /><polyline fill="none" points="497.0,422.8 497.0,427.0 504.0,427.0 504.0,413.0 499.80000000000007,413.0" stroke="rgb(45,111,142)" stroke-width="4.2" /><polyline fill="none" points="494.19999999999993,413.0 413.0,413.0 413.0,420.0 417.2,420.0" stroke="rgb(44,113,142)" stroke-width="4.2" /><polyline fill="none" points="422.8,420.0 501.19999999999993,420.0" stroke="rgb(44,113,142)" stroke-width="4.2" /><polyline fill="none" points="506.80000000000007,420.0 532.0,420.0 532.0,424.2" stroke="rgb(44,114,142)" stroke-width="4.2" /><polyline fill="none" points="532.0,429.8 532.0,501.19999999999993" stroke="rgb(43,115,142)" stroke-width="4.2" /><polyline fill="none" points="532.0,506.80000000000007 532.0,515.1999999999999" stroke="rgb(43,116,142)" stroke-width="4.2" /><polyline fill="none" points="532.0,520.8000000000001 532.0,585.1999999999999" stroke="rgb(42,117,142)" stroke-width="4.2" /><polyline fill="none" points="532.0,590.8000000000001 532.0,623.0 455.0,623.0 455.0,627.1999999999999" stroke="rgb(42,118,142)" stroke-width="4.2" /><polyline fill="none" points="455.0,632.8000000000001 455.0,637.0 462.0,637.0 462.0,625.8000000000001" stroke="rgb(42,119,142)" stroke-width="4.2" /><polyline fill="none" points="462.0,620.1999999999999 462.0,588.0 676.1999999999999,588.0" stroke="rgb(42,119,142)" stroke-width="4.2" /><polyline fill="none" points="681.8000000000001,588.0 693.0,588.0 693.0,436.8" stroke="rgb(41,120,142)" stroke-width="4.2" /><polyline fill="none" points="693.0,431.2 693.0,28.0 707.0,28.0 707.0,466.19999999999993" stroke="rgb(41,121,142)" stroke-width="4.2" /><polyline fill="none" points="707.0,471.80000000000007 707.0,658.0 679.0,658.0 679.0,653.8000000000001" stroke="rgb(40,122,142)" stroke-width="4.2" /><polyline fill="none" points="679.0,648.1999999999999 679.0,583.8000000000001" stroke="rgb(40,122,142)" stroke-width="4.2" /><polyline fill="none" points="679.0,578.1999999999999 679.0,511.0 534.8000000000001,511.0" stroke="rgb(40,123,142)" stroke-width="4.2" /><polyline fill="none" points="529.1999999999999,511.0 462.0,511.0 462.0,515.1999999999999" stroke="rgb(39,124,142)" stroke-width="4.2" /><polyline fill="none" points="462.0,520.8000000000001 462.0,539.0 457.80000000000007,539.0" stroke="rgb(39,124,142)" stroke-width="4.2" /><polyline fill="none" points="452.19999999999993,539.0 448.0,539.0 448.0,532.0 459.19999999999993,532.0" stroke="rgb(39,125,142)" stroke-width="4.2" /><polyline fill="none" points="464.80000000000007,532.0 476.0,532.0 476.0,527.8000000000001" stroke="rgb(39,126,142)" stroke-width="4.2" /><polyline fill="none" points="476.0,522.1999999999999 476.0,513.8000000000001" stroke="rgb(38,127,142)" stroke-width="4.2" /><polyline fill="none" points="476.0,508.19999999999993 476.0,490.0 429.8,490.0" stroke="rgb(38,128,142)" stroke-width="4.2" /><polyline fill="none" points="424.2,490.0 364.0,490.0 364.0,501.19999999999993" stroke="rgb(38,129,142)" stroke-width="4.2" /><polyline fill="none" points="364.0,506.80000000000007 364.0,574.0 417.2,574.0" stroke="rgb(37,130,142)" stroke-width="4.2" /><polyline fill="none" points="422.8,574.0 529.1999999999999,574.0" stroke="rgb(37,130,142)" stroke-width="4.2" /><polyline fill="none" points="534.8000000000001,574.0 655.1999999999999,574.0" stroke="rgb(37,131,141)" stroke-width="4.2" /><polyline fill="none" points="660.8000000000001,574.0 672.0,574.0 672.0,525.0 667.8000000000001,525.0" stroke="rgb(36,132,141)" stroke-width="4.2" /><polyline fill="none" points="662.1999999999999,525.0 653.8000000000001,525.0" stroke="rgb(36,133,141)" stroke-width="4.2" /><polyline fill="none" points="648.1999999999999,525.0 644.0,525.0 644.0,513.8000000000001" stroke="rgb(36,134,141)" stroke-width="4.2" /><polyline fill="none" points="644.0,508.19999999999993 644.0,436.8" stroke="rgb(35,135,141)" stroke-width="4.2" /><polyline fill="none" points="644.0,431.2 644.0,65.8" stroke="rgb(35,136,141)" stroke-width="4.2" /><polyline fill="none" points="644.0,60.199999999999996 644.0,44.800000000000004" stroke="rgb(35,136,141)" stroke-width="4.2" /><polyline fill="none" points="644.0,39.199999999999996 644.0,14.0 364.0,14.0 364.0,18.2" stroke="rgb(35,137,141)" stroke-width="4.2" /><polyline fill="none" points="364.0,23.8 364.0,46.199999999999996" stroke="rgb(34,137,141)" stroke-width="4.2" /><polyline fill="none" points="364.0,51.800000000000004 364.0,56.0 378.0,56.0 378.0,158.20000000000002" stroke="rgb(34,138,141)" stroke-width="4.2" /><polyline fill="none" points="378.0,163.79999999999998 378.0,168.0 371.0,168.0 371.0,58.800000000000004" stroke="rgb(34,139,141)" stroke-width="4.2" /><polyline fill="none" points="371.0,53.199999999999996 371.0,49.0 357.0,49.0 357.0,158.20000000000002" stroke="rgb(33,140,141)" stroke-width="4.2" /><polyline fill="none" points="357.0,163.79999999999998 357.0,403.2" stroke="rgb(33,141,140)" stroke-width="4.2" /><polyline fill="none" points="357.0,408.8 357.0,511.0 352.8,511.0" stroke="rgb(33,141,140)" stroke-width="4.2" /><polyline fill="none" points="347.2,511.0 303.8,511.0" stroke="rgb(33,142,140)" stroke-width="4.2" /><polyline fill="none" points="298.2,511.0 294.0,511.0 294.0,422.8" stroke="rgb(32,143,140)" stroke-width="4.2" /><polyline fill="none" points="294.0,417.2 294.0,401.8" stroke="rgb(32,144,140)" stroke-width="4.2" /><polyline fill="none" points="294.0,396.2 294.0,163.79999999999998" stroke="rgb(32,145,140)" stroke-width="4.2" /><polyline fill="none" points="294.0,158.20000000000002 294.0,154.0 308.0,154.0 308.0,168.0 296.8,168.0" stroke="rgb(31,146,140)" stroke-width="4.2" /><polyline fill="none" points="291.2,168.0 77.0,168.0 77.0,172.20000000000002" stroke="rgb(31,146,140)" stroke-width="4.2" /><polyline fill="none" points="77.0,177.79999999999998 77.0,186.20000000000002" stroke="rgb(31,147,139)" stroke-width="4.2" /><polyline fill="none" points="77.0,191.79999999999998 77.0,196.0 63.0,196.0 63.0,170.79999999999998" stroke="rgb(31,148,139)" stroke-width="4.2" /><polyline fill="none" points="63.0,165.20000000000002 63.0,44.800000000000004" stroke="rgb(31,149,139)" stroke-width="4.2" /><polyline fill="none" points="63.0,39.199999999999996 63.0,7.0 651.0,7.0 651.0,21.0 646.8000000000001,21.0" stroke="rgb(31,150,139)" stroke-width="4.2" /><polyline fill="none" points="641.1999999999999,21.0 65.8,21.0" stroke="rgb(31,150,139)" stroke-width="4.2" /><polyline fill="none" points="60.199999999999996,21.0 49.0,21.0 49.0,168.0 70.0,168.0 70.0,49.0 65.8,49.0" stroke="rgb(30,152,138)" stroke-width="4.2" /><polyline fill="none" points="60.199999999999996,49.0 56.0,49.0 56.0,42.0 361.2,42.0" stroke="rgb(30,152,138)" stroke-width="4.2" /><polyline fill="none" points="366.8,42.0 655.1999999999999,42.0" stroke="rgb(30,153,138)" stroke-width="4.2" /><polyline fill="none" points="660.8000000000001,42.0 665.0,42.0 665.0,105.0 646.8000000000001,105.0" stroke="rgb(30,153,138)" stroke-width="4.2" /><polyline fill="none" points="641.1999999999999,105.0 623.0,105.0 623.0,424.2" stroke="rgb(30,154,137)" stroke-width="4.2" /><polyline fill="none" points="623.0,429.8 623.0,438.2" stroke="rgb(30,155,137)" stroke-width="4.2" /><polyline fill="none" points="623.0,443.8 623.0,448.0 609.0,448.0 609.0,441.0 613.1999999999999,441.0" stroke="rgb(30,156,137)" stroke-width="4.2" /><polyline fill="none" points="618.8000000000001,441.0 630.0,441.0 630.0,462.0 618.8000000000001,462.0" stroke="rgb(30,157,136)" stroke-width="4.2" /><polyline fill="none" points="613.1999999999999,462.0 604.8000000000001,462.0" stroke="rgb(30,157,136)" stroke-width="4.2" /><polyline fill="none" points="599.1999999999999,462.0 583.8000000000001,462.0" stroke="rgb(30,158,136)" stroke-width="4.2" /><polyline fill="none" points="578.1999999999999,462.0 567.0,462.0 567.0,476.0 595.0,476.0 595.0,464.80000000000007" stroke="rgb(30,159,136)" stroke-width="4.2" /><polyline fill="none" points="595.0,459.19999999999993 595.0,448.0 602.0,448.0 602.0,452.19999999999993" stroke="rgb(30,160,135)" stroke-width="4.2" /><polyline fill="none" points="602.0,457.80000000000007 602.0,480.19999999999993" stroke="rgb(30,160,135)" stroke-width="4.2" /><polyline fill="none" points="602.0,485.80000000000007 602.0,490.0 553.0,490.0 553.0,483.0 557.1999999999999,483.0" stroke="rgb(31,162,134)" stroke-width="4.2" /><polyline fill="none" points="562.8000000000001,483.0 616.0,483.0 616.0,471.80000000000007" stroke="rgb(31,163,134)" stroke-width="4.2" /><polyline fill="none" points="616.0,466.19999999999993 616.0,450.80000000000007" stroke="rgb(31,163,134)" stroke-width="4.2" /><polyline fill="none" points="616.0,445.2 616.0,434.0 620.1999999999999,434.0" stroke="rgb(32,164,133)" stroke-width="4.2" /><polyline fill="none" points="625.8000000000001,434.0 658.0,434.0 658.0,107.8" stroke="rgb(32,165,133)" stroke-width="4.2" /><polyline fill="none" points="658.0,102.2 658.0,35.0 690.1999999999999,35.0" stroke="rgb(33,166,133)" stroke-width="4.2" /><polyline fill="none" points="695.8000000000001,35.0 700.0,35.0 700.0,434.0 686.0,434.0 686.0,466.19999999999993" stroke="rgb(33,167,132)" stroke-width="4.2" /><polyline fill="none" points="686.0,471.80000000000007 686.0,581.0 665.0,581.0 665.0,576.8000000000001" stroke="rgb(34,167,132)" stroke-width="4.2" /><polyline fill="none" points="665.0,571.1999999999999 665.0,518.0 658.0,518.0 658.0,522.1999999999999" stroke="rgb(35,168,131)" stroke-width="4.2" /><polyline fill="none" points="658.0,527.8000000000001 658.0,581.0 651.0,581.0 651.0,576.8000000000001" stroke="rgb(35,168,131)" stroke-width="4.2" /><polyline fill="none" points="651.0,571.1999999999999 651.0,518.0 646.8000000000001,518.0" stroke="rgb(35,169,130)" stroke-width="4.2" /><polyline fill="none" points="641.1999999999999,518.0 478.80000000000007,518.0" stroke="rgb(36,170,130)" stroke-width="4.2" /><polyline fill="none" points="473.19999999999993,518.0 457.80000000000007,518.0" stroke="rgb(37,171,129)" stroke-width="4.2" /><polyline fill="none" points="452.19999999999993,518.0 441.0,518.0 441.0,546.0 455.0,546.0 455.0,534.8000000000001" stroke="rgb(38,172,129)" stroke-width="4.2" /><polyline fill="none" points="455.0,529.1999999999999 455.0,511.0 434.0,511.0 434.0,553.0 469.0,553.0 469.0,534.8000000000001" stroke="rgb(39,173,128)" stroke-width="4.2" /><polyline fill="none" points="469.0,529.1999999999999 469.0,525.0 483.0,525.0 483.0,560.0 422.8,560.0" stroke="rgb(40,174,127)" stroke-width="4.2" /><polyline fill="none" points="417.2,560.0 378.0,560.0 378.0,506.80000000000007" stroke="rgb(40,174,127)" stroke-width="4.2" /><polyline fill="none" points="378.0,501.19999999999993 378.0,497.0 371.0,497.0 371.0,511.0 375.2,511.0" stroke="rgb(41,175,127)" stroke-width="4.2" /><polyline fill="none" points="380.8,511.0 427.0,511.0 427.0,506.80000000000007" stroke="rgb(42,176,126)" stroke-width="4.2" /><polyline fill="none" points="427.0,501.19999999999993 427.0,483.0 422.8,483.0" stroke="rgb(43,177,125)" stroke-width="4.2" /><polyline fill="none" points="417.2,483.0 413.0,483.0 413.0,476.0 529.1999999999999,476.0" stroke="rgb(44,177,125)" stroke-width="4.2" /><polyline fill="none" points="534.8000000000001,476.0 543.1999999999999,476.0" stroke="rgb(46,178,124)" stroke-width="4.2" /><polyline fill="none" points="548.8000000000001,476.0 560.0,476.0 560.0,487.19999999999993" stroke="rgb(46,178,124)" stroke-width="4.2" /><polyline fill="none" points="560.0,492.80000000000007 560.0,497.0 546.0,497.0 546.0,469.0 539.0,469.0 539.0,473.19999999999993" stroke="rgb(47,179,123)" stroke-width="4.2" /><polyline fill="none" points="539.0,478.80000000000007 539.0,504.0 478.80000000000007,504.0" stroke="rgb(48,180,122)" stroke-width="4.2" /><polyline fill="none" points="473.19999999999993,504.0 422.8,504.0" stroke="rgb(50,181,122)" stroke-width="4.2" /><polyline fill="none" points="417.2,504.0 373.8,504.0" stroke="rgb(51,182,121)" stroke-width="4.2" /><polyline fill="none" points="368.2,504.0 359.8,504.0" stroke="rgb(53,183,120)" stroke-width="4.2" /><polyline fill="none" points="354.2,504.0 350.0,504.0 350.0,564.1999999999999" stroke="rgb(54,184,119)" stroke-width="4.2" /><polyline fill="none" points="350.0,569.8000000000001 350.0,599.1999999999999" stroke="rgb(56,185,118)" stroke-width="4.2" /><polyline fill="none" points="350.0,604.8000000000001 350.0,613.1999999999999" stroke="rgb(56,185,118)" stroke-width="4.2" /><polyline fill="none" points="350.0,618.8000000000001 350.0,623.0 448.0,623.0 448.0,588.0 436.8,588.0" stroke="rgb(57,185,118)" stroke-width="4.2" /><polyline fill="none" points="431.2,588.0 352.8,588.0" stroke="rgb(59,186,117)" stroke-width="4.2" /><polyline fill="none" points="347.2,588.0 128.79999999999998,588.0" stroke="rgb(61,187,116)" stroke-width="4.2" /><polyline fill="none" points="123.20000000000002,588.0 119.0,588.0 119.0,574.0 270.2,574.0" stroke="rgb(62,188,115)" stroke-width="4.2" /><polyline fill="none" points="275.8,574.0 333.2,574.0" stroke="rgb(62,188,115)" stroke-width="4.2" /><polyline fill="none" points="338.8,574.0 343.0,574.0 343.0,560.0 331.8,560.0" stroke="rgb(66,190,113)" stroke-width="4.2" /><polyline fill="none" points="326.2,560.0 315.0,560.0 315.0,567.0 319.2,567.0" stroke="rgb(66,190,113)" stroke-width="4.2" /><polyline fill="none" points="324.8,567.0 329.0,567.0 329.0,525.0 324.8,525.0" stroke="rgb(68,190,112)" stroke-width="4.2" /><polyline fill="none" points="319.2,525.0 114.79999999999998,525.0" stroke="rgb(69,191,111)" stroke-width="4.2" /><polyline fill="none" points="109.2,525.0 105.0,525.0 105.0,532.0 126.0,532.0 126.0,571.1999999999999" stroke="rgb(71,192,110)" stroke-width="4.2" /><polyline fill="none" points="126.0,576.8000000000001 126.0,595.0 273.0,595.0 273.0,590.8000000000001" stroke="rgb(73,193,109)" stroke-width="4.2" /><polyline fill="none" points="273.0,585.1999999999999 273.0,527.8000000000001" stroke="rgb(75,194,108)" stroke-width="4.2" /><polyline fill="none" points="273.0,522.1999999999999 273.0,373.8" stroke="rgb(77,194,107)" stroke-width="4.2" /><polyline fill="none" points="273.0,368.2 273.0,364.0 238.0,364.0 238.0,375.2" stroke="rgb(77,194,107)" stroke-width="4.2" /><polyline fill="none" points="238.0,380.8 238.0,410.2" stroke="rgb(79,195,105)" stroke-width="4.2" /><polyline fill="none" points="238.0,415.8 238.0,427.0 259.0,427.0 259.0,401.8" stroke="rgb(81,196,104)" stroke-width="4.2" /><polyline fill="none" points="259.0,396.2 259.0,385.0 252.0,385.0 252.0,389.2" stroke="rgb(83,197,103)" stroke-width="4.2" /><polyline fill="none" points="252.0,394.8 252.0,406.0 240.79999999999998,406.0" stroke="rgb(83,197,103)" stroke-width="4.2" /><polyline fill="none" points="235.20000000000002,406.0 231.0,406.0 231.0,378.0 266.0,378.0 266.0,392.0 261.8,392.0" stroke="rgb(87,198,101)" stroke-width="4.2" /><polyline fill="none" points="256.2,392.0 245.0,392.0 245.0,399.0 249.20000000000002,399.0" stroke="rgb(89,199,100)" stroke-width="4.2" /><polyline fill="none" points="254.79999999999998,399.0 270.2,399.0" stroke="rgb(89,199,100)" stroke-width="4.2" /><polyline fill="none" points="275.8,399.0 305.2,399.0" stroke="rgb(91,200,98)" stroke-width="4.2" /><polyline fill="none" points="310.8,399.0 315.0,399.0 315.0,417.2" stroke="rgb(94,201,97)" stroke-width="4.2" /><polyline fill="none" points="315.0,422.8 315.0,427.0 308.0,427.0 308.0,413.0 296.8,413.0" stroke="rgb(96,201,96)" stroke-width="4.2" /><polyline fill="none" points="291.2,413.0 280.0,413.0 280.0,518.0 301.0,518.0 301.0,427.0 296.8,427.0" stroke="rgb(98,202,95)" stroke-width="4.2" /><polyline fill="none" points="291.2,427.0 287.0,427.0 287.0,420.0 305.2,420.0" stroke="rgb(100,203,93)" stroke-width="4.2" /><polyline fill="none" points="310.8,420.0 322.0,420.0 322.0,508.19999999999993" stroke="rgb(103,204,92)" stroke-width="4.2" /><polyline fill="none" points="322.0,513.8000000000001 322.0,557.1999999999999" stroke="rgb(103,204,92)" stroke-width="4.2" /><polyline fill="none" points="322.0,562.8000000000001 322.0,571.1999999999999" stroke="rgb(105,204,91)" stroke-width="4.2" /><polyline fill="none" points="322.0,576.8000000000001 322.0,581.0 336.0,581.0 336.0,567.0 340.2,567.0" stroke="rgb(107,205,89)" stroke-width="4.2" /><polyline fill="none" points="345.8,567.0 361.2,567.0" stroke="rgb(107,205,89)" stroke-width="4.2" /><polyline fill="none" points="366.8,567.0 434.0,567.0 434.0,571.1999999999999" stroke="rgb(112,206,86)" stroke-width="4.2" /><polyline fill="none" points="434.0,576.8000000000001 434.0,592.1999999999999" stroke="rgb(114,207,85)" stroke-width="4.2" /><polyline fill="none" points="434.0,597.8000000000001 434.0,602.0 422.8,602.0" stroke="rgb(116,208,84)" stroke-width="4.2" /><polyline fill="none" points="417.2,602.0 112.0,602.0 112.0,534.8000000000001" stroke="rgb(116,208,84)" stroke-width="4.2" /><polyline fill="none" points="112.0,529.1999999999999 112.0,422.8" stroke="rgb(119,208,82)" stroke-width="4.2" /><polyline fill="none" points="112.0,417.2 112.0,378.0 37.800000000000004,378.0" stroke="rgb(121,209,81)" stroke-width="4.2" /><polyline fill="none" points="32.199999999999996,378.0 14.0,378.0 14.0,382.2" stroke="rgb(124,210,79)" stroke-width="4.2" /><polyline fill="none" points="14.0,387.8 14.0,658.0 28.0,658.0 28.0,646.8000000000001" stroke="rgb(126,210,78)" stroke-width="4.2" /><polyline fill="none" points="28.0,641.1999999999999 28.0,380.8" stroke="rgb(129,211,76)" stroke-width="4.2" /><polyline fill="none" points="28.0,375.2 28.0,287.0 46.199999999999996,287.0" stroke="rgb(131,211,75)" stroke-width="4.2" /><polyline fill="none" points="51.800000000000004,287.0 77.0,287.0 77.0,294.0 72.8,294.0" stroke="rgb(131,211,75)" stroke-width="4.2" /><polyline fill="none" points="67.2,294.0 56.0,294.0 56.0,315.0 70.0,315.0 70.0,303.8" stroke="rgb(134,212,73)" stroke-width="4.2" /><polyline fill="none" points="70.0,298.2 70.0,289.8" stroke="rgb(134,212,73)" stroke-width="4.2" /><polyline fill="none" points="70.0,284.2 70.0,273.0 37.800000000000004,273.0" stroke="rgb(139,213,70)" stroke-width="4.2" /><polyline fill="none" points="32.199999999999996,273.0 21.0,273.0 21.0,217.0 32.199999999999996,217.0" stroke="rgb(141,214,68)" stroke-width="4.2" /><polyline fill="none" points="37.800000000000004,217.0 42.0,217.0 42.0,210.0 28.0,210.0 28.0,189.0 32.199999999999996,189.0" stroke="rgb(144,214,67)" stroke-width="4.2" /><polyline fill="none" points="37.800000000000004,189.0 60.199999999999996,189.0" stroke="rgb(146,215,65)" stroke-width="4.2" /><polyline fill="none" points="65.8,189.0 84.0,189.0 84.0,182.0 79.8,182.0" stroke="rgb(146,215,65)" stroke-width="4.2" /><polyline fill="none" points="74.2,182.0 70.0,182.0 70.0,175.0 193.20000000000002,175.0" stroke="rgb(149,215,63)" stroke-width="4.2" /><polyline fill="none" points="198.79999999999998,175.0 203.0,175.0 203.0,214.20000000000002" stroke="rgb(151,216,62)" stroke-width="4.2" /><polyline fill="none" points="203.0,219.79999999999998 203.0,340.2" stroke="rgb(154,216,60)" stroke-width="4.2" /><polyline fill="none" points="203.0,345.8 203.0,357.0 189.0,357.0 189.0,352.8" stroke="rgb(157,217,58)" stroke-width="4.2" /><polyline fill="none" points="189.0,347.2 189.0,338.8" stroke="rgb(159,217,56)" stroke-width="4.2" /><polyline fill="none" points="189.0,333.2 189.0,231.0 168.0,231.0 168.0,235.20000000000002" stroke="rgb(162,218,55)" stroke-width="4.2" /><polyline fill="none" points="168.0,240.79999999999998 168.0,277.2" stroke="rgb(162,218,55)" stroke-width="4.2" /><polyline fill="none" points="168.0,282.8 168.0,294.0 175.0,294.0 175.0,289.8" stroke="rgb(165,218,53)" stroke-width="4.2" /><polyline fill="none" points="175.0,284.2 175.0,280.0 163.79999999999998,280.0" stroke="rgb(167,219,51)" stroke-width="4.2" /><polyline fill="none" points="158.20000000000002,280.0 154.0,280.0 154.0,287.0 165.20000000000002,287.0" stroke="rgb(170,219,50)" stroke-width="4.2" /><polyline fill="none" points="170.79999999999998,287.0 182.0,287.0 182.0,273.0 170.79999999999998,273.0" stroke="rgb(173,220,48)" stroke-width="4.2" /><polyline fill="none" points="165.20000000000002,273.0 149.79999999999998,273.0" stroke="rgb(175,220,46)" stroke-width="4.2" /><polyline fill="none" points="144.20000000000002,273.0 91.0,273.0 91.0,268.8" stroke="rgb(178,221,44)" stroke-width="4.2" /><polyline fill="none" points="91.0,263.2 91.0,259.0 102.2,259.0" stroke="rgb(178,221,44)" stroke-width="4.2" /><polyline fill="none" points="107.8,259.0 161.0,259.0 161.0,270.2" stroke="rgb(181,221,43)" stroke-width="4.2" /><polyline fill="none" points="161.0,275.8 161.0,284.2" stroke="rgb(183,221,41)" stroke-width="4.2" /><polyline fill="none" points="161.0,289.8 161.0,294.0 147.0,294.0 147.0,261.8" stroke="rgb(186,222,39)" stroke-width="4.2" /><polyline fill="none" points="147.0,256.2 147.0,245.0 84.0,245.0 84.0,277.2" stroke="rgb(189,222,38)" stroke-width="4.2" /><polyline fill="none" points="84.0,282.8 84.0,305.2" stroke="rgb(191,223,36)" stroke-width="4.2" /><polyline fill="none" points="84.0,310.8 84.0,329.0 91.0,329.0 91.0,324.8" stroke="rgb(194,223,34)" stroke-width="4.2" /><polyline fill="none" points="91.0,319.2 91.0,315.0 98.0,315.0 98.0,333.2" stroke="rgb(194,223,34)" stroke-width="4.2" /><polyline fill="none" points="98.0,338.8 98.0,375.2" stroke="rgb(197,223,33)" stroke-width="4.2" /><polyline fill="none" points="98.0,380.8 98.0,389.2" stroke="rgb(199,224,31)" stroke-width="4.2" /><polyline fill="none" points="98.0,394.8 98.0,609.0 79.8,609.0" stroke="rgb(202,224,30)" stroke-width="4.2" /><polyline fill="none" points="74.2,609.0 35.0,609.0 35.0,399.0 39.199999999999996,399.0" stroke="rgb(205,224,29)" stroke-width="4.2" /><polyline fill="none" points="44.800000000000004,399.0 56.0,399.0 56.0,403.2" stroke="rgb(207,225,28)" stroke-width="4.2" /><polyline fill="none" points="56.0,408.8 56.0,413.0 49.0,413.0 49.0,401.8" stroke="rgb(210,225,27)" stroke-width="4.2" /><polyline fill="none" points="49.0,396.2 49.0,392.0 63.0,392.0 63.0,606.1999999999999" stroke="rgb(210,225,27)" stroke-width="4.2" /><polyline fill="none" points="63.0,611.8000000000001 63.0,630.0 424.2,630.0" stroke="rgb(212,225,26)" stroke-width="4.2" /><polyline fill="none" points="429.8,630.0 459.19999999999993,630.0" stroke="rgb(215,226,25)" stroke-width="4.2" /><polyline fill="none" points="464.80000000000007,630.0 469.0,630.0 469.0,644.0 21.0,644.0 21.0,651.0 25.2,651.0" stroke="rgb(218,226,24)" stroke-width="4.2" /><polyline fill="none" points="30.800000000000004,651.0 704.1999999999999,651.0" stroke="rgb(220,226,24)" stroke-width="4.2" /><polyline fill="none" points="709.8000000000001,651.0 714.0,651.0 714.0,469.0 695.8000000000001,469.0" stroke="rgb(223,227,24)" stroke-width="4.2" /><polyline fill="none" points="690.1999999999999,469.0 646.8000000000001,469.0" stroke="rgb(225,227,24)" stroke-width="4.2" /><polyline fill="none" points="641.1999999999999,469.0 609.0,469.0 609.0,464.80000000000007" stroke="rgb(225,227,24)" stroke-width="4.2" /><polyline fill="none" points="609.0,459.19999999999993 609.0,455.0 597.8000000000001,455.0" stroke="rgb(228,227,24)" stroke-width="4.2" /><polyline fill="none" points="592.1999999999999,455.0 588.0,455.0 588.0,93.8" stroke="rgb(231,228,25)" stroke-width="4.2" /><polyline fill="none" points="588.0,88.2 588.0,79.8" stroke="rgb(233,228,25)" stroke-width="4.2" /><polyline fill="none" points="588.0,74.2 588.0,70.0 525.0,70.0 525.0,81.2" stroke="rgb(236,228,26)" stroke-width="4.2" /><polyline fill="none" points="525.0,86.8 525.0,102.2" stroke="rgb(238,229,27)" stroke-width="4.2" /><polyline fill="none" points="525.0,107.8 525.0,417.2" stroke="rgb(241,229,28)" stroke-width="4.2" /><polyline fill="none" points="525.0,422.8 525.0,427.0 571.1999999999999,427.0" stroke="rgb(241,229,28)" stroke-width="4.2" /><polyline fill="none" points="576.8000000000001,427.0 585.1999999999999,427.0" stroke="rgb(243,229,30)" stroke-width="4.2" /><polyline fill="none" points="590.8000000000001,427.0 630.0,427.0 630.0,107.8" stroke="rgb(246,230,31)" stroke-width="4.2" /><polyline fill="none" points="630.0,102.2 630.0,91.0 597.8000000000001,91.0" stroke="rgb(248,230,33)" stroke-width="4.2" /><polyline fill="none" points="592.1999999999999,91.0 576.8000000000001,91.0" stroke="rgb(250,230,34)" stroke-width="4.2" /><polyline fill="none" points="571.1999999999999,91.0 527.8000000000001,91.0" stroke="rgb(253,231,36)" stroke-width="4.2" /><polyline fill="none" points="522.1999999999999,91.0 518.0,91.0 518.0,84.0 532.0,84.0 532.0,88.2" stroke="rgb(253,231,36)" stroke-width="4.2" /></svg>